<?xml version="1.0"?>
<svg version="1.1" xmlns="http://www.w3.org/2000/svg" width="400px" height="200px" style="border: dashed 2px #aaa"><path fill="#000000" d="M53.92,111.49l0.45,2.52s1.2,0.63,2.94,0.63c1.92,0,3.63-0.84,3.63-2.43c0-3.51-10.14-1.95-10.14-9.36c0-4.14,3.27-6.36,7.62-6.36c3.39,0,6.6,1.2,6.6,1.2l-0.15,5.46l-2.76,0l-0.75-2.55s-1.35-0.45-2.64-0.45c-2.13,0-3.18,0.93-3.18,2.13c0,3.48,10.11,2.1,10.11,9.15c0,4.5-3.48,6.96-8.1,6.96c-3.39,0-6.69-1.14-6.69-1.14l0-5.76l3.06,0z M78.3853,101.5c4.86,0,7.56,2.94,7.56,8.1c0,5.4-3.15,8.7-8.01,8.7c-4.89,0-7.65-2.55-7.65-8.25c0-5.4,3.21-8.55,8.1-8.55z M78.2353,105.1c-2.19,0-3.3,1.2-3.3,4.8c0,3.3,0.96,4.8,3.15,4.8c2.16,0,3.21-1.35,3.21-4.95c0-3.06-0.9-4.65-3.06-4.65z M96.4906,101.8l0.21,2.07s2.85-2.31,5.52-2.31c2.91,0,4.56,2.07,4.56,5.34l0,7.95l2.1,0.75l0,2.4l-8.25,0l0-2.4l1.65-0.75l0-7.14c0-1.38-0.78-2.4-2.04-2.4c-1.86,0-3.21,1.71-3.21,1.71l0,7.83l1.65,0.75l0,2.4l-8.55,0l0-2.4l2.4-0.75l0-9.75l-2.4-0.75l0-2.4z M114.6259,96.85c0-1.71,1.23-2.7,2.58-2.7c1.56,0,2.52,0.81,2.52,2.7c0,1.77-1.29,2.73-2.52,2.73c-1.62,0-2.58-0.96-2.58-2.73z M119.6659,114.85l2.1,0.75l0,2.4l-9,0l0-2.4l2.4-0.75l0-9.75l-2.4-0.75l0-2.4l6.9-0.15l0,13.05z M131.4112,114.55l0-14.1l-2.85,0l-0.75,2.85l-2.76,0l0-6.45l17.4,0l0,6.45l-2.79,0l-0.75-2.85l-2.85,0l0,14.1l2.85,0.9l0,2.55l-10.35,0l0-2.55z M160.5265,110.89l-9.96,0c0.18,2.4,1.56,3.81,3.63,3.81c2.49,0,5.04-1.41,5.04-1.41l1.29,2.49s-3,2.52-6.84,2.52c-5.16,0-7.8-3-7.8-8.1c0-5.25,2.97-8.7,8.01-8.7c4.47,0,6.81,2.76,6.81,7.05c0,1.14-0.18,2.25-0.18,2.34z M150.6265,108.1l5.43,0c0-1.71-0.72-3-2.46-3c-1.68,0-2.73,1.23-2.97,3z M177.6418,113.11l1.5,2.64c-0.75,0.66-3.09,2.55-6.45,2.55c-4.95,0-7.8-3.06-7.8-8.16c0-5.34,3-8.64,8.25-8.64c2.58,0,5.25,1.05,5.25,1.05l-0.15,4.92l-2.7,0l-0.42-2.13s-0.87-0.24-2.07-0.24c-2.16,0-3.51,1.44-3.51,4.44c0,3.27,1.26,5.16,3.75,5.16c2.1,0,3.42-1.05,4.35-1.59z M189.1771,94.75l0,8.79c0.87-0.72,2.82-2.04,5.04-2.04c3.06,0,4.71,2.04,4.71,5.4l0,7.95l2.1,0.75l0,2.4l-8.16,0l0-2.4l1.56-0.72l0-7.26c0-1.5-0.6-2.4-1.98-2.4c-1.68,0-3.27,1.59-3.27,1.59l0,8.04l1.59,0.75l0,2.4l-8.49,0l0-2.4l2.4-0.75l0-16.86l-2.4-0.6l0-2.4z M228.6577,103.6l-0.69-2.88s-1.41-0.48-3.36-0.48c-3.15,0-4.95,2.34-4.95,7.35c0,4.86,1.95,6.9,5.1,6.9c3,0,5.7-2.1,5.7-2.1l1.65,2.7s-3.15,3.27-7.86,3.27c-6.09,0-9.6-3.66-9.6-10.62c0-7.05,3.96-11.25,10.11-11.25c3.63,0,6.99,1.41,6.99,1.41l-0.15,5.7l-2.94,0z M244.243,101.5c4.86,0,7.56,2.94,7.56,8.1c0,5.4-3.15,8.7-8.01,8.7c-4.89,0-7.65-2.55-7.65-8.25c0-5.4,3.21-8.55,8.1-8.55z M244.093,105.1c-2.19,0-3.3,1.2-3.3,4.8c0,3.3,0.96,4.8,3.15,4.8c2.16,0,3.21-1.35,3.21-4.95c0-3.06-0.9-4.65-3.06-4.65z M262.4683,114.85l2.7,0.75l0,2.4l-9.63,0l0-2.4l2.4-0.75l0-16.86l-2.4-0.6l0-2.4l6.93-0.24l0,20.1z M276.5536,101.5c4.86,0,7.56,2.94,7.56,8.1c0,5.4-3.15,8.7-8.01,8.7c-4.89,0-7.65-2.55-7.65-8.25c0-5.4,3.21-8.55,8.1-8.55z M276.4036,105.1c-2.19,0-3.3,1.2-3.3,4.8c0,3.3,0.96,4.8,3.15,4.8c2.16,0,3.21-1.35,3.21-4.95c0-3.06-0.9-4.65-3.06-4.65z M316.2889,115.6l0,2.4l-8.13,0l0-2.4l1.59-0.75l0-7.14c0-1.65-0.48-2.46-1.74-2.46c-1.95,0-3.33,1.56-3.33,1.56l0,8.04l1.56,0.75l0,2.4l-7.62,0l0-2.4l1.56-0.75l0-7.14c0-1.65-0.42-2.46-1.71-2.46c-1.95,0-3.36,1.56-3.36,1.56l0,8.04l1.59,0.75l0,2.4l-8.4,0l0-2.4l2.31-0.75l0-9.75l-2.28-0.75l0-2.4l6.27-0.15l0.21,2.13s2.61-2.43,5.25-2.43c2.13,0,3.45,0.99,4.14,2.58c0.51-0.51,2.76-2.58,5.43-2.58c3.15,0,4.62,2.04,4.62,5.4l0,7.95z M326.0242,94.75l0,8.34c0.51-0.39,2.01-1.59,4.29-1.59c4.02,0,6.15,2.91,6.15,7.95c0,5.64-2.94,8.91-8.7,8.91c-3.3,0-6.24-0.66-6.24-0.66l0-19.71l-2.25-0.6l0-2.4z M326.0242,106.45l0,8.07s0.69,0.24,2.22,0.24c2.61,0,3.57-1.98,3.57-5.01c0-3-0.84-4.65-2.94-4.65c-1.8,0-2.85,1.35-2.85,1.35z M342.6595,96.85c0-1.71,1.23-2.7,2.58-2.7c1.56,0,2.52,0.81,2.52,2.7c0,1.77-1.29,2.73-2.52,2.73c-1.62,0-2.58-0.96-2.58-2.73z M347.6995,114.85l2.1,0.75l0,2.4l-9,0l0-2.4l2.4-0.75l0-9.75l-2.4-0.75l0-2.4l6.9-0.15l0,13.05z M364.0648,118l-0.54-1.95s-2.31,2.25-4.86,2.25c-2.91,0-4.68-1.71-4.68-4.71c0-3.54,2.67-4.95,7.23-4.95l2.1,0l0-1.65c0-1.53-0.81-2.19-2.31-2.19c-1.53,0-2.64,0.45-2.64,0.45l-0.45,1.89l-2.7,0l-0.21-4.44s3.63-1.2,6.51-1.2c4.56,0,6.3,1.59,6.3,5.94l0,7.41l2.25,0.54l0,2.4z M363.3148,111.19l-1.71,0c-2.34,0-3.27,0.6-3.27,1.95c0,1.14,0.63,1.8,1.77,1.8c1.59,0,3.21-1.74,3.21-1.74l0-2.01z"/><path fill="#" d=""/></svg>
