<svg xmlns="http://www.w3.org/2000/svg" version="1.1" xmlns:xlink="http://www.w3.org/1999/xlink" xmlns:svgjs="http://svgjs.dev/svgjs" width="1000" height="623" viewBox="0 0 1000 623"><g transform="matrix(1,0,0,1,-0.6060606060606233,0.2522267206477409)"><svg viewBox="0 0 396 247" data-background-color="#ffffff" preserveAspectRatio="xMidYMid meet" height="623" width="1000" xmlns="http://www.w3.org/2000/svg" xmlns:xlink="http://www.w3.org/1999/xlink"><g id="tight-bounds" transform="matrix(1,0,0,1,0.2400000000000091,-0.09999999999999432)"><svg viewBox="0 0 395.52 247.2" height="247.2" width="395.52"><g><svg></svg></g><g><svg viewBox="0 0 395.52 247.2" height="247.2" width="395.52"><g transform="matrix(1,0,0,1,75.54432,100.29580186458827)"><svg viewBox="0 0 244.43135999999998 46.608396270823434" height="46.608396270823434" width="244.43135999999998"><g><svg viewBox="0 0 308.7686855424396 58.8762966085174" height="46.608396270823434" width="244.43135999999998"><g transform="matrix(1,0,0,1,0,8.137027968326212)"><svg viewBox="0 0 244.43135999999998 42.602240671864976" height="42.602240671864976" width="244.43135999999998"><g id="textblocktransform"><svg viewBox="0 0 244.43135999999998 42.602240671864976" height="42.602240671864976" width="244.43135999999998" id="textblock"><g><svg viewBox="0 0 244.43135999999998 23.132503659508803" height="23.132503659508803" width="244.43135999999998"><g transform="matrix(1,0,0,1,0,0)"><svg width="244.43135999999998" viewBox="1.5 -36.3 388.81 36.8" height="23.132503659508803" data-palette-color="#1c4b82"><path d="M13.25-34.3L13.25-34.3Q15-34.3 16.6-33.98 18.2-33.65 19.53-33.23 20.85-32.8 21.78-32.35 22.7-31.9 23.05-31.65L23.05-31.65 20.6-27.35 19.95-27.7Q19.3-28.05 18.25-28.5 17.2-28.95 15.95-29.3 14.7-29.65 13.55-29.65L13.55-29.65Q11.75-29.65 10.43-28.8 9.1-27.95 9.1-26.15L9.1-26.15Q9.1-23.9 10.55-22.48 12-21.05 15.1-19.85L15.1-19.85Q17.1-19.05 18.68-18.18 20.25-17.3 21.35-16.15 22.45-15 23.03-13.5 23.6-12 23.6-9.9L23.6-9.9Q23.6-8 22.88-6.15 22.15-4.3 20.73-2.88 19.3-1.45 17.2-0.58 15.1 0.3 12.35 0.3L12.35 0.3Q10.4 0.3 8.65-0.1 6.9-0.5 5.48-1.03 4.05-1.55 3.03-2.1 2-2.65 1.5-2.95L1.5-2.95 3.6-7.55 4.5-7.05Q5.4-6.55 6.7-5.95 8-5.35 9.45-4.85 10.9-4.35 11.95-4.35L11.95-4.35Q14.6-4.35 15.9-5.65 17.2-6.95 17.2-9.3L17.2-9.3Q17.2-10.4 16.85-11.23 16.5-12.05 15.85-12.65 15.2-13.25 14.28-13.73 13.35-14.2 12.2-14.65L12.2-14.65Q9.95-15.6 8.18-16.55 6.4-17.5 5.15-18.73 3.9-19.95 3.25-21.53 2.6-23.1 2.6-25.3L2.6-25.3Q2.6-27.15 3.4-28.78 4.2-30.4 5.6-31.63 7-32.85 8.95-33.58 10.9-34.3 13.25-34.3ZM38.5-25.5Q44.25-25.5 46.85-22.1 49.45-18.7 49.45-12.75L49.45-12.75Q49.45-9.95 48.75-7.53 48.05-5.1 46.62-3.33 45.2-1.55 43.05-0.53 40.9 0.5 38.05 0.5L38.05 0.5Q35.2 0.5 33.12-0.38 31.05-1.25 29.7-2.9 28.35-4.55 27.72-6.9 27.1-9.25 27.1-12.2L27.1-12.2Q27.1-15.05 27.8-17.48 28.5-19.9 29.92-21.68 31.35-23.45 33.5-24.48 35.65-25.5 38.5-25.5L38.5-25.5ZM38-21.3Q36.55-21.3 35.62-20.65 34.7-20 34.17-18.82 33.65-17.65 33.45-16.07 33.25-14.5 33.25-12.7L33.25-12.7Q33.25-10.85 33.47-9.2 33.7-7.55 34.3-6.33 34.9-5.1 35.92-4.4 36.95-3.7 38.55-3.7L38.55-3.7Q40-3.7 40.92-4.35 41.85-5 42.37-6.18 42.9-7.35 43.1-8.9 43.3-10.45 43.3-12.25L43.3-12.25Q43.3-14.1 43.07-15.75 42.85-17.4 42.25-18.65 41.65-19.9 40.62-20.6 39.6-21.3 38-21.3L38-21.3ZM75.6 0L69.95 0 69.95-16.15Q69.95-18.25 69.2-19.53 68.45-20.8 66.65-20.8L66.65-20.8Q65.5-20.8 64.42-20.23 63.35-19.65 62.5-18.55 61.65-17.45 61.12-15.88 60.6-14.3 60.6-12.35L60.6-12.35 60.6 0 54.9 0 54.9-12.6Q54.9-15.6 54.5-17.63 54.1-19.65 53.65-20.9L53.65-20.9Q53.1-22.35 52.45-23.25L52.45-23.25 56.95-25.05Q57.45-24.5 57.95-23.7L57.95-23.7Q58.35-23 58.75-21.98 59.15-20.95 59.4-19.65L59.4-19.65Q60.7-22.65 63.15-23.98 65.6-25.3 68.3-25.3L68.3-25.3Q72.15-25.3 73.87-22.98 75.6-20.65 75.6-16.7L75.6-16.7 75.6 0ZM87.14 0.2Q84.49 0.2 83.09-1.38 81.69-2.95 81.69-5.45L81.69-5.45 81.69-24.9 87.39-24.9 87.39-5.95Q87.39-4.8 87.74-4.4 88.09-4 88.79-4L88.79-4Q88.99-4 89.22-4 89.44-4 89.64-4.05L89.64-4.05Q89.84-4.05 90.09-4.1L90.09-4.1 90.69-0.5Q90.34-0.3 89.79-0.15L89.79-0.15Q89.34 0 88.67 0.1 87.99 0.2 87.14 0.2L87.14 0.2ZM84.64-36Q86.24-36 87.09-35.05 87.94-34.1 87.94-32.6L87.94-32.6Q87.94-31.1 87.07-30.1 86.19-29.1 84.49-29.1L84.49-29.1Q82.89-29.1 82.02-30.08 81.14-31.05 81.14-32.45L81.14-32.45Q81.14-34 82.02-35 82.89-36 84.64-36L84.64-36ZM91.29-33.85L114.89-33.85 114.14-29.35 105.74-29.35 105.74 0 99.84 0 99.84-29.35 91.29-29.35 91.29-33.85ZM113.19-11.85Q113.19-15.2 114.11-17.75 115.04-20.3 116.66-22.03 118.29-23.75 120.49-24.63 122.69-25.5 125.24-25.5L125.24-25.5Q127.49-25.5 129.06-24.95 130.64-24.4 131.64-23.45 132.64-22.5 133.11-21.2 133.59-19.9 133.59-18.4L133.59-18.4Q133.59-16.6 132.59-14.98 131.59-13.35 129.71-12.13 127.84-10.9 125.19-10.18 122.54-9.45 119.24-9.4L119.24-9.4Q119.39-8.25 119.71-7.23 120.04-6.2 120.66-5.43 121.29-4.65 122.29-4.2 123.29-3.75 124.79-3.75L124.79-3.75Q125.89-3.75 127.14-4 128.39-4.25 129.44-4.6L129.44-4.6Q130.69-5 131.89-5.5L131.89-5.5 133.39-1.95Q132.09-1.3 130.59-0.8L130.59-0.8Q129.29-0.35 127.59 0 125.89 0.35 123.99 0.35L123.99 0.35Q121.09 0.35 119.04-0.53 116.99-1.4 115.69-3 114.39-4.6 113.79-6.85 113.19-9.1 113.19-11.85L113.19-11.85ZM124.79-21.6Q123.14-21.6 122.06-20.83 120.99-20.05 120.34-18.82 119.69-17.6 119.41-16.07 119.14-14.55 119.09-13L119.09-13Q121.49-13.1 123.16-13.63 124.84-14.15 125.89-14.93 126.94-15.7 127.41-16.6 127.89-17.5 127.89-18.4L127.89-18.4Q127.89-19.85 127.04-20.73 126.19-21.6 124.79-21.6L124.79-21.6ZM155.04-22.1L151.84-19.05Q151.09-19.9 150.31-20.5 149.53-21.1 148.24-21.1L148.24-21.1Q147.49-21.1 146.56-20.88 145.64-20.65 144.84-19.78 144.03-18.9 143.51-17.2 142.99-15.5 142.99-12.6L142.99-12.6Q142.99-9.65 143.51-7.93 144.03-6.2 144.86-5.25 145.69-4.3 146.64-4.03 147.59-3.75 148.49-3.75L148.49-3.75Q149.19-3.75 149.94-3.88 150.69-4 151.39-4.17 152.09-4.35 152.61-4.5 153.14-4.65 153.39-4.75L153.39-4.75 154.79-1.15Q154.64-1.1 154.11-0.85 153.59-0.6 152.69-0.35 151.78-0.1 150.53 0.13 149.28 0.35 147.74 0.35L147.74 0.35Q144.84 0.35 142.78-0.53 140.74-1.4 139.41-3 138.09-4.6 137.46-6.85 136.84-9.1 136.84-11.85L136.84-11.85Q136.84-15.15 137.71-17.7 138.59-20.25 140.14-21.98 141.69-23.7 143.78-24.6 145.89-25.5 148.28-25.5L148.28-25.5Q150.64-25.5 152.26-24.6 153.89-23.7 155.04-22.1L155.04-22.1ZM164.53-36.25L164.53-21.7Q165.98-23.6 168.01-24.45 170.03-25.3 172.28-25.3L172.28-25.3Q176.13-25.3 177.86-22.98 179.58-20.65 179.58-16.7L179.58-16.7 179.58 0 173.88 0 173.88-16.3Q173.88-18.4 173.13-19.63 172.38-20.85 170.58-20.85L170.58-20.85Q169.53-20.85 168.46-20.3 167.38-19.75 166.51-18.73 165.63-17.7 165.08-16.3 164.53-14.9 164.53-13.2L164.53-13.2 164.53 0 158.83 0 158.83-35.25 164.53-36.25ZM220.48-30.7L217.43-27.05Q216.23-28.35 214.9-29.03 213.58-29.7 211.83-29.7L211.83-29.7Q209.68-29.7 208.2-28.73 206.73-27.75 205.83-26.03 204.93-24.3 204.53-22 204.13-19.7 204.13-17.05L204.13-17.05Q204.13-14.4 204.5-12.1 204.88-9.8 205.8-8.05 206.73-6.3 208.3-5.3 209.88-4.3 212.28-4.3L212.28-4.3Q213.43-4.3 214.48-4.5 215.53-4.7 216.4-4.93 217.28-5.15 217.85-5.35 218.43-5.55 218.58-5.6L218.58-5.6 219.98-1.4 219.33-1.15Q218.68-0.9 217.5-0.58 216.33-0.25 214.7 0.03 213.08 0.3 211.13 0.3L211.13 0.3Q204.43 0.3 201.05-3.98 197.68-8.25 197.68-16.5L197.68-16.5Q197.68-20.45 198.58-23.73 199.48-27 201.3-29.35 203.13-31.7 205.9-33 208.68-34.3 212.43-34.3L212.43-34.3Q215.43-34.3 217.35-33.2 219.28-32.1 220.48-30.7L220.48-30.7ZM232.38-25.5Q238.13-25.5 240.73-22.1 243.33-18.7 243.33-12.75L243.33-12.75Q243.33-9.95 242.63-7.53 241.93-5.1 240.5-3.33 239.08-1.55 236.93-0.53 234.78 0.5 231.93 0.5L231.93 0.5Q229.08 0.5 227-0.38 224.93-1.25 223.58-2.9 222.23-4.55 221.6-6.9 220.98-9.25 220.98-12.2L220.98-12.2Q220.98-15.05 221.68-17.48 222.38-19.9 223.8-21.68 225.23-23.45 227.38-24.48 229.53-25.5 232.38-25.5L232.38-25.5ZM231.88-21.3Q230.43-21.3 229.5-20.65 228.58-20 228.05-18.82 227.53-17.65 227.33-16.07 227.13-14.5 227.13-12.7L227.13-12.7Q227.13-10.85 227.35-9.2 227.58-7.55 228.18-6.33 228.78-5.1 229.8-4.4 230.83-3.7 232.43-3.7L232.43-3.7Q233.88-3.7 234.8-4.35 235.73-5 236.25-6.18 236.78-7.35 236.98-8.9 237.18-10.45 237.18-12.25L237.18-12.25Q237.18-14.1 236.95-15.75 236.73-17.4 236.13-18.65 235.53-19.9 234.5-20.6 233.48-21.3 231.88-21.3L231.88-21.3ZM253.62 0.2Q250.77 0.2 249.42-1.38 248.07-2.95 248.07-5.4L248.07-5.4 248.07-35.25 253.77-36.3 253.77-5.95Q253.77-4.8 254.22-4.35 254.67-3.9 255.52-3.9L255.52-3.9Q256.02-3.9 256.5-3.95 256.97-4 257.37-4.1L257.37-4.1Q257.82-4.2 258.17-4.3L258.17-4.3 258.87-0.7Q258.22-0.45 257.42-0.25L257.42-0.25Q256.72-0.05 255.77 0.08 254.82 0.2 253.62 0.2L253.62 0.2ZM272.02-25.5Q277.77-25.5 280.37-22.1 282.97-18.7 282.97-12.75L282.97-12.75Q282.97-9.95 282.27-7.53 281.57-5.1 280.14-3.33 278.72-1.55 276.57-0.53 274.42 0.5 271.57 0.5L271.57 0.5Q268.72 0.5 266.64-0.38 264.57-1.25 263.22-2.9 261.87-4.55 261.25-6.9 260.62-9.25 260.62-12.2L260.62-12.2Q260.62-15.05 261.32-17.48 262.02-19.9 263.44-21.68 264.87-23.45 267.02-24.48 269.17-25.5 272.02-25.5L272.02-25.5ZM271.52-21.3Q270.07-21.3 269.14-20.65 268.22-20 267.69-18.82 267.17-17.65 266.97-16.07 266.77-14.5 266.77-12.7L266.77-12.7Q266.77-10.85 267-9.2 267.22-7.55 267.82-6.33 268.42-5.1 269.44-4.4 270.47-3.7 272.07-3.7L272.07-3.7Q273.52-3.7 274.44-4.35 275.37-5 275.89-6.18 276.42-7.35 276.62-8.9 276.82-10.45 276.82-12.25L276.82-12.25Q276.82-14.1 276.6-15.75 276.37-17.4 275.77-18.65 275.17-19.9 274.14-20.6 273.12-21.3 271.52-21.3L271.52-21.3ZM322.17 0L316.52 0 316.52-16.3Q316.52-18.4 315.87-19.63 315.22-20.85 313.62-20.85L313.62-20.85Q312.67-20.85 311.69-20.33 310.72-19.8 309.92-18.8 309.12-17.8 308.62-16.4 308.12-15 308.12-13.3L308.12-13.3 308.12 0 302.47 0 302.47-16.3Q302.47-18.4 301.82-19.63 301.17-20.85 299.57-20.85L299.57-20.85Q298.57-20.85 297.59-20.28 296.62-19.7 295.84-18.6 295.07-17.5 294.59-15.93 294.12-14.35 294.12-12.4L294.12-12.4 294.12 0 288.42 0 288.42-12.6Q288.42-15.6 288.02-17.63 287.62-19.65 287.17-20.9L287.17-20.9Q286.62-22.35 285.97-23.25L285.97-23.25 290.47-25.05Q290.97-24.5 291.47-23.7L291.47-23.7Q291.87-23 292.27-21.98 292.67-20.95 292.92-19.65L292.92-19.65Q294.17-22.65 296.44-23.98 298.72-25.3 301.27-25.3L301.27-25.3Q303.82-25.3 305.24-24 306.67-22.7 307.37-20.65L307.37-20.65Q308.72-23.15 310.84-24.23 312.97-25.3 315.32-25.3L315.32-25.3Q317.27-25.3 318.59-24.68 319.92-24.05 320.69-22.93 321.47-21.8 321.82-20.23 322.17-18.65 322.17-16.7L322.17-16.7 322.17 0ZM328.42-1.15L328.42-35.25 334.12-36.25 334.12-21Q335.02-23.05 336.64-24.18 338.27-25.3 340.81-25.3L340.81-25.3Q343.17-25.3 344.89-24.43 346.62-23.55 347.77-21.93 348.92-20.3 349.47-18 350.02-15.7 350.02-12.9L350.02-12.9Q350.02-10.05 349.14-7.63 348.27-5.2 346.69-3.45 345.12-1.7 342.92-0.7 340.72 0.3 338.06 0.3L338.06 0.3Q336.56 0.3 334.87 0.08 333.17-0.15 331.72-0.4L331.72-0.4Q330.06-0.7 328.42-1.15L328.42-1.15ZM339.87-21.3Q338.62-21.3 337.56-20.45 336.52-19.6 335.74-18.2 334.97-16.8 334.54-15.05 334.12-13.3 334.12-11.45L334.12-11.45 334.12-4.2Q334.56-4.1 335.56-3.9 336.56-3.7 337.42-3.7L337.42-3.7Q339.27-3.7 340.52-4.35 341.77-5 342.52-6.15 343.27-7.3 343.56-8.9 343.87-10.5 343.87-12.4L343.87-12.4Q343.87-14.15 343.77-15.75 343.67-17.35 343.24-18.6 342.81-19.85 342.02-20.58 341.22-21.3 339.87-21.3L339.87-21.3ZM360.26 0.2Q357.61 0.2 356.21-1.38 354.81-2.95 354.81-5.45L354.81-5.45 354.81-24.9 360.51-24.9 360.51-5.95Q360.51-4.8 360.86-4.4 361.21-4 361.91-4L361.91-4Q362.11-4 362.34-4 362.56-4 362.76-4.05L362.76-4.05Q362.96-4.05 363.21-4.1L363.21-4.1 363.81-0.5Q363.46-0.3 362.91-0.15L362.91-0.15Q362.46 0 361.79 0.1 361.11 0.2 360.26 0.2L360.26 0.2ZM357.76-36Q359.36-36 360.21-35.05 361.06-34.1 361.06-32.6L361.06-32.6Q361.06-31.1 360.19-30.1 359.31-29.1 357.61-29.1L357.61-29.1Q356.01-29.1 355.14-30.08 354.26-31.05 354.26-32.45L354.26-32.45Q354.26-34 355.14-35 356.01-36 357.76-36L357.76-36ZM387.91-23.85L387.91-12.05Q387.91-9.05 388.29-7.03 388.66-5 389.11-3.75L389.11-3.75Q389.66-2.25 390.31-1.4L390.31-1.4 385.86 0.4Q385.21-0.25 384.66-1.15L384.66-1.15Q384.21-1.95 383.81-3.08 383.41-4.2 383.31-5.75L383.31-5.75Q382.46-2.75 380.59-1.23 378.71 0.3 375.51 0.3L375.51 0.3Q373.16 0.3 371.44-0.58 369.71-1.45 368.56-3.08 367.41-4.7 366.86-7 366.31-9.3 366.31-12.1L366.31-12.1Q366.31-14.95 367.19-17.38 368.06-19.8 369.64-21.55 371.21-23.3 373.41-24.3 375.61-25.3 378.26-25.3L378.26-25.3Q379.76-25.3 381.39-25.08 383.01-24.85 384.41-24.6 385.81-24.35 386.79-24.13 387.76-23.9 387.91-23.85L387.91-23.85ZM376.46-3.7Q377.71-3.7 378.76-4.55 379.81-5.4 380.59-6.78 381.36-8.15 381.79-9.93 382.21-11.7 382.21-13.55L382.21-13.55 382.21-20.75Q381.71-20.9 380.71-21.1 379.71-21.3 378.91-21.3L378.91-21.3Q377.01-21.3 375.79-20.65 374.56-20 373.81-18.85 373.06-17.7 372.76-16.1 372.46-14.5 372.46-12.6L372.46-12.6Q372.46-10.85 372.56-9.25 372.66-7.65 373.09-6.4 373.51-5.15 374.31-4.42 375.11-3.7 376.46-3.7L376.46-3.7Z" opacity="1" transform="matrix(1,0,0,1,0,0)" fill="#1c4b82" class="wordmark-text-0" data-fill-palette-color="primary" id="text-0"></path></svg></g></svg></g><g transform="matrix(1,0,0,1,100.925708544,28.593532593431004)"><svg viewBox="0 0 143.50565145599998 14.00870807843397" height="14.00870807843397" width="143.50565145599998"><g transform="matrix(1,0,0,1,0,0)"><svg width="143.50565145599998" viewBox="3.5 -37.5 386.16 37.7" height="14.00870807843397" data-palette-color="#1c4b82"><path d="M12.9-2.4L12.9 0 3.5 0 3.5-2.4 6.5-2.75 6.5-32.2 3.75-32.55 3.75-35 12.65-35 12.65-32.55 9.9-32.2 9.9-2.75 12.9-2.4ZM22.4-25.25L22.4-22.25Q26.15-25 29.5-25.15L29.5-25.15Q32.55-25.15 34.2-24.4 35.85-23.65 36.92-22.28 38-20.9 38-18.4L38-18.4 38 0 34.75 0 34.75-17.55Q34.75-19.4 33.95-20.4L33.95-20.4Q32.35-22.25 29.05-22.25L29.05-22.25Q25.9-22.1 22.4-20.2L22.4-20.2 22.4 0 19.15 0 19.15-25 22.4-25.25ZM47.75-25.25L47.75-22.25Q51.5-25 54.85-25.15L54.85-25.15Q57.9-25.15 59.55-24.4 61.2-23.65 62.27-22.28 63.35-20.9 63.35-18.4L63.35-18.4 63.35 0 60.1 0 60.1-17.55Q60.1-19.4 59.3-20.4L59.3-20.4Q57.7-22.25 54.4-22.25L54.4-22.25Q51.25-22.1 47.75-20.2L47.75-20.2 47.75 0 44.5 0 44.5-25 47.75-25.25ZM69.39-6.4L69.39-6.4Q68.49-8.8 68.49-12L68.49-12Q68.49-18.15 71.94-21.68 75.39-25.2 80.59-25.2L80.59-25.2Q88.74-25.2 91.29-18.6L91.29-18.6Q92.24-16.2 92.24-13L92.24-13Q92.24-6.85 88.79-3.33 85.34 0.2 80.14 0.2L80.14 0.2Q71.99 0.2 69.39-6.4ZM71.74-12.35Q71.74-7.75 74.12-5.23 76.49-2.7 80.24-2.7 83.99-2.7 86.49-5.38 88.99-8.05 88.99-12.65 88.99-17.25 86.64-19.78 84.29-22.3 80.52-22.3 76.74-22.3 74.24-19.63 71.74-16.95 71.74-12.35ZM103.24 0L93.99-25 97.64-25.25 104.89-3.85 112.74-25 116.34-25.25 106.24 0 103.24 0ZM119.74-19.9L118.84-22.3Q124.29-25 128.39-25.15L128.39-25.15Q131.64-25.15 133.41-24.33 135.19-23.5 136.29-22.03 137.39-20.55 137.39-17.9L137.39-17.9 137.39 0 134.14 0 134.14-1.9Q127.29 0.2 125.34 0.2L125.34 0.2Q125.24 0.2 125.19 0.2L125.19 0.2Q120.69 0.2 119.04-2.55L119.04-2.55Q118.44-3.55 118.36-4.5 118.29-5.45 118.29-6.1L118.29-6.1Q118.29-7.9 119.69-9.33 121.09-10.75 123.04-11.25L123.04-11.25Q126.34-12.1 134.14-12.75L134.14-12.75 134.14-16.8Q134.14-22.25 128.44-22.25L128.44-22.25Q124.44-22.25 119.74-19.9L119.74-19.9ZM121.34-5.7L121.34-5.7Q121.34-2.1 126.29-2.1L126.29-2.1Q130.24-2.1 134.14-3.8L134.14-3.8 134.14-10.95Q126.34-9.85 124.49-9.25L124.49-9.25Q121.34-8.25 121.34-5.7ZM158.69-16.4L158.44-21.65Q156.39-22.3 154.24-22.3L154.24-22.3Q149.89-22.3 147.26-19.5 144.64-16.7 144.64-11.6L144.64-11.6Q144.64-2.7 152.89-2.7L152.89-2.7Q156.19-2.7 159.69-3.8L159.69-3.8Q160.39-4 160.54-4.1L160.54-4.1 161.34-1.4Q159.59-0.35 154.99 0.1L154.99 0.1Q153.69 0.2 152.24 0.2L152.24 0.2Q147.99 0.2 145.24-1.9L145.24-1.9Q141.39-4.8 141.39-11.45 141.39-18.1 144.96-21.68 148.54-25.25 154.19-25.25L154.19-25.25Q155.99-25.25 158.01-24.78 160.04-24.3 161.14-23.3L161.14-23.3 161.14-16.75 158.69-16.4ZM166.88-25L170.13-25.25 170.13 0 166.88 0 166.88-25ZM168.38-31.7Q167.38-31.7 166.86-32.35 166.33-33 166.33-34 166.33-35 166.91-35.63 167.48-36.25 168.48-36.25 169.48-36.25 170.11-35.63 170.73-35 170.73-33.9 170.73-32.8 170.06-32.25 169.38-31.7 168.38-31.7ZM177.18-6.4L177.18-6.4Q176.28-8.8 176.28-12L176.28-12Q176.28-18.15 179.73-21.68 183.18-25.2 188.38-25.2L188.38-25.2Q196.53-25.2 199.08-18.6L199.08-18.6Q200.03-16.2 200.03-13L200.03-13Q200.03-6.85 196.58-3.33 193.13 0.2 187.93 0.2L187.93 0.2Q179.78 0.2 177.18-6.4ZM179.53-12.35Q179.53-7.75 181.91-5.23 184.28-2.7 188.03-2.7 191.78-2.7 194.28-5.38 196.78-8.05 196.78-12.65 196.78-17.25 194.43-19.78 192.08-22.3 188.31-22.3 184.53-22.3 182.03-19.63 179.53-16.95 179.53-12.35ZM207.33-25.25L207.33-22.25Q211.08-25 214.43-25.15L214.43-25.15Q217.48-25.15 219.13-24.4 220.78-23.65 221.85-22.28 222.93-20.9 222.93-18.4L222.93-18.4 222.93 0 219.68 0 219.68-17.55Q219.68-19.4 218.88-20.4L218.88-20.4Q217.28-22.25 213.98-22.25L213.98-22.25Q210.83-22.1 207.33-20.2L207.33-20.2 207.33 0 204.08 0 204.08-25 207.33-25.25ZM248.12 0L244.97 0 244.97-35 248.37-35 261.22-9.4 274.07-35 277.47-35 277.47 0 274.32 0 274.32-29.2 262.92-6.55 259.52-6.55 248.12-29.2 248.12 0ZM289.17-3.2L289.17-3.2Q290.27-2.8 292.67-2.8 295.07-2.8 298.87-4.75L298.87-4.75 298.87-25 302.12-25.25 302.12 0 298.87 0 298.87-2.7Q295.17 0.15 291.32 0.15L291.32 0.15Q286.52 0.15 284.37-2.7L284.37-2.7Q283.27-4.1 283.27-6.6L283.27-6.6 283.27-25 286.52-25.25 286.52-7.45Q286.52-4.35 289.17-3.2ZM323.37-24.5L322.57-21.7Q320.77-22.3 317.67-22.3 314.57-22.3 312.87-21.2 311.17-20.1 311.17-18.48 311.17-16.85 312.17-16.1 313.17-15.35 314.67-14.83 316.17-14.3 317.94-13.8 319.72-13.3 321.22-12.5L321.22-12.5Q324.72-10.7 324.72-7.15 324.72-3.6 322.29-1.7 319.87 0.2 315.22 0.2L315.22 0.2Q312.87 0.2 310.69-0.28 308.52-0.75 307.37-1.6L307.37-1.6 308.47-4.25Q309.62-3.25 313.12-2.8L313.12-2.8Q314.22-2.65 315.37-2.65L315.37-2.65Q317.97-2.65 319.72-3.73 321.47-4.8 321.47-7L321.47-7Q321.47-8.5 320.47-9.35 319.47-10.2 317.97-10.78 316.47-11.35 314.69-11.8 312.92-12.25 311.42-12.98 309.92-13.7 308.92-14.88 307.92-16.05 307.92-18.05L307.92-18.05Q307.92-21.3 310.42-23.25 312.92-25.2 317.12-25.2L317.12-25.2Q318.17-25.2 319.27-25.08 320.37-24.95 321.27-24.85L321.27-24.85 323.37-24.5ZM329.67-25L332.92-25.25 332.92 0 329.67 0 329.67-25ZM331.17-31.7Q330.17-31.7 329.64-32.35 329.12-33 329.12-34 329.12-35 329.69-35.63 330.27-36.25 331.27-36.25 332.27-36.25 332.89-35.63 333.52-35 333.52-33.9 333.52-32.8 332.84-32.25 332.17-31.7 331.17-31.7ZM355.41-16.4L355.16-21.65Q353.11-22.3 350.96-22.3L350.96-22.3Q346.61-22.3 343.99-19.5 341.36-16.7 341.36-11.6L341.36-11.6Q341.36-2.7 349.61-2.7L349.61-2.7Q352.91-2.7 356.41-3.8L356.41-3.8Q357.11-4 357.26-4.1L357.26-4.1 358.06-1.4Q356.31-0.35 351.71 0.1L351.71 0.1Q350.41 0.2 348.96 0.2L348.96 0.2Q344.71 0.2 341.96-1.9L341.96-1.9Q338.11-4.8 338.11-11.45 338.11-18.1 341.69-21.68 345.26-25.25 350.91-25.25L350.91-25.25Q352.71-25.25 354.74-24.78 356.76-24.3 357.86-23.3L357.86-23.3 357.86-16.75 355.41-16.4ZM363.26-19.9L362.36-22.3Q367.81-25 371.91-25.15L371.91-25.15Q375.16-25.15 376.94-24.33 378.71-23.5 379.81-22.03 380.91-20.55 380.91-17.9L380.91-17.9 380.91 0 377.66 0 377.66-1.9Q370.81 0.2 368.86 0.2L368.86 0.2Q368.76 0.2 368.71 0.2L368.71 0.2Q364.21 0.2 362.56-2.55L362.56-2.55Q361.96-3.55 361.89-4.5 361.81-5.45 361.81-6.1L361.81-6.1Q361.81-7.9 363.21-9.33 364.61-10.75 366.56-11.25L366.56-11.25Q369.86-12.1 377.66-12.75L377.66-12.75 377.66-16.8Q377.66-22.25 371.96-22.25L371.96-22.25Q367.96-22.25 363.26-19.9L363.26-19.9ZM364.86-5.7L364.86-5.7Q364.86-2.1 369.81-2.1L369.81-2.1Q373.76-2.1 377.66-3.8L377.66-3.8 377.66-10.95Q369.86-9.85 368.01-9.25L368.01-9.25Q364.86-8.25 364.86-5.7ZM389.66 0L386.41 0 386.41-37.25 389.66-37.5 389.66 0Z" opacity="1" transform="matrix(1,0,0,1,0,0)" fill="#1c4b82" class="slogan-text-1" data-fill-palette-color="secondary" id="text-1"></path></svg></g></svg></g></svg></g></svg></g><g transform="matrix(1,0,0,1,249.89238893392218,0)"><svg viewBox="0 0 58.8762966085174 58.8762966085174" height="58.8762966085174" width="58.8762966085174"><g data-palette-color="#1c4b82"><rect width="16.09285440632809" height="58.8762966085174" fill="#1c4b82" stroke="transparent" data-fill-palette-color="accent" x="0" fill-opacity="1"></rect><rect width="16.09285440632809" height="58.8762966085174" fill="#1c4b82" stroke="transparent" data-fill-palette-color="accent" x="19.625432202839136" fill-opacity="0.75"></rect><rect width="16.09285440632809" height="58.8762966085174" fill="#1c4b82" stroke="transparent" data-fill-palette-color="accent" x="39.25086440567827" fill-opacity="0.5"></rect></g></svg></g></svg></g></svg></g><path d="M204.079 94.296L204.079 28.054 395.171 28.054 395.171 219.146 204.079 219.146 204.079 152.904 205.731 152.904 205.731 217.494 393.519 217.494 393.519 29.706 205.731 29.706 205.731 94.296Z" fill="#1c4b82" stroke="transparent" data-fill-palette-color="primary"></path></svg></g><defs></defs></svg><rect width="395.52" height="247.2" fill="none" stroke="none" visibility="hidden"></rect></g></svg></g></svg>